<svg baseProfile="full" height="300" width="300" xmlns="http://www.w3.org/2000/svg"><path stroke="#fff" stroke-width="9.818" fill="none" d="M294 150a144 144 0 0 1-144 144A144 144 0 0 1 6 150a144 144 0 0 1 288 0z"/><path d="M228.617 112.38c3.12-6.17 3.96-13.238 2.079-19.593-2.195-7.439-8.165-13.255-15.147-15.548 1.283-10.929-2.992-23.042-11.77-32.105-7.851-8.095-20.021-18.696-33.444-23.184-22.473-7.51-51.172 2.323-66.777 22.871-4.901 6.456-7.253 13.98-8.763 19.809-2.779 10.743-2.138 19.55-.185 26.419-6.298.969-14.549 6.969-22.144 16.103-8.365 10.073-14.65 22.414-17.685 34.754-10.588 42.979 19.124 71.749 37.776 85.073 20.549 14.678 46.669 12.639 63.583 4.075-.028 3.648-.057 6.585-.071 9.049-.115 11.086-.143 14.064.713 34.727a6.415 6.415 0 0 0 6.398 6.156h.271c3.535-.142 6.284-3.134 6.142-6.669-.841-20.335-.813-23.256-.698-34.071.056-5.145.113-12.197.113-23.755a6.404 6.404 0 0 0-6.413-6.413c-3.207 0-5.856 2.352-6.341 5.431-1.239 1.568-6.983 5.828-17.457 8.136-8.236 1.81-24.24 3.305-38.787-7.082-35.425-25.309-37.378-52.896-32.775-71.578 6.127-24.852 24.396-40.57 29.34-41.254a6.2 6.2 0 0 0 3.149-1.396c2.95 4.519 5.815 6.912 6.113 7.14 2.736 2.209 6.712 1.781 8.95-.94 2.236-2.708 1.838-6.742-.84-9.007-.5-.427-12.184-10.574-6.742-31.691 1.198-4.675 3.036-10.618 6.556-15.262 12.225-16.104 35.282-24.226 52.481-18.469 10.973 3.663 21.447 12.868 28.315 19.951 8.592 8.864 9.72 19.808 7.111 26.22a6.407 6.407 0 0 0 6.669 8.793c4.132-.471 8.736 2.892 10.047 7.353 1.368 4.631-.327 10.375-4.219 14.321a6.43 6.43 0 0 0-1.639 6.156 6.43 6.43 0 0 0 4.489 4.532c7.152 1.981 15.674 7.353 15.66 21.718 0 9.12-1.639 25.949-12.483 36.351-8.82 8.45-21.717 11.258-37.663 8.265.171-.256.327-.513.471-.797 8.664-17.414 5.556-35.155-8.779-49.932-10.859-11.201-25.251-17.799-37.961-23.613a6.42 6.42 0 0 0-6.214.484 6.42 6.42 0 0 0-2.878 5.53 248 248 0 0 0 3.676 36.28c1.042 5.871 2.465 12.625 6.271 18.54 6.898 10.743 22.201 20.476 33.003 23.684 9.192 2.736 17.229 3.862 24.267 3.862 16.815 0 27.831-6.469 34.671-13.025 13.565-12.996 16.416-31.977 16.429-45.6.015-17.585-9.02-26.419-16.913-30.766z" fill="#fff"/></svg>
